<?xml version="1.0" encoding="UTF-8"?>
<!DOCTYPE svg PUBLIC "-//W3C//DTD SVG 1.1//EN" "http://www.w3.org/Graphics/SVG/1.1/DTD/svg11.dtd">
<!-- Creator: CorelDRAW 2020 (64-Bit) -->
<svg xmlns="http://www.w3.org/2000/svg" xml:space="preserve" width="210mm" height="297mm" version="1.1" style="shape-rendering:geometricPrecision; text-rendering:geometricPrecision; image-rendering:optimizeQuality; fill-rule:evenodd; clip-rule:evenodd"
viewBox="0 0 21000 29700"
 xmlns:xlink="http://www.w3.org/1999/xlink"
 xmlns:xodm="http://www.corel.com/coreldraw/odm/2003">
 <defs>
  <style type="text/css">
   <![CDATA[
    .fil0 {fill:#FEFEFE;fill-rule:nonzero}
   ]]>
  </style>
 </defs>
 <g id="Слой_x0020_1">
  <metadata id="CorelCorpID_0Corel-Layer"/>
  <g id="_2360962052896">
   <g id="_2560048646560">
    <g>
     <path class="fil0" d="M19183 16592c-1224,0 -2427,-192 -3566,-568 -558,-190 -1245,-16 -1585,334l-2249 1698c-2608,-1392 -4214,-2998 -5588,-5586l1648 -2190c428,-428 582,-1052 398,-1638 -378,-1145 -570,-2347 -570,-3572 0,-885 -720,-1605 -1605,-1605l-3673 0c-885,0 -1605,720 -1605,1605 0,10143 8252,18395 18395,18395 885,0 1605,-720 1605,-1605l0 -3663c0,-885 -720,-1605 -1605,-1605z"/>
    </g>
   </g>
  </g>
 </g>
</svg>
