<?xml version="1.0" encoding="UTF-8"?>
<!DOCTYPE svg PUBLIC "-//W3C//DTD SVG 1.1//EN" "http://www.w3.org/Graphics/SVG/1.1/DTD/svg11.dtd">
<!-- Creator: CorelDRAW 2020 (64-Bit) -->
<svg xmlns="http://www.w3.org/2000/svg" xml:space="preserve" width="200mm" height="200mm" version="1.1" style="shape-rendering:geometricPrecision; text-rendering:geometricPrecision; image-rendering:optimizeQuality; fill-rule:evenodd; clip-rule:evenodd"
viewBox="0 0 20498 20498"
 xmlns:xlink="http://www.w3.org/1999/xlink"
 xmlns:xodm="http://www.corel.com/coreldraw/odm/2003">
 <defs>
  <style type="text/css">
   <![CDATA[
    .fil0 {fill:#EBECEC;fill-rule:nonzero}
   ]]>
  </style>
 </defs>
 <g id="Слой_x0020_1">
  <metadata id="CorelCorpID_0Corel-Layer"/>
  <g id="_2946025737856">
   <path class="fil0" d="M8547 7783l4356 2475 -4356 2475 0 -4950zm11951 -5587l0 16105c0,1212 -984,2196 -2196,2196l-16105 0c-1212,0 -2196,-984 -2196,-2196l0 -16105c0,-1212 984,-2196 2196,-2196l16105 0c1212,0 2196,984 2196,2196zm-1922 8067c0,0 0,-2727 -347,-4036 -193,-723 -755,-1290 -1474,-1482 -1294,-353 -6506,-353 -6506,-353 0,0 -5212,0 -6506,353 -718,193 -1281,759 -1474,1482 -347,1304 -347,4035 -347,4035 0,0 0,2727 347,4036 193,723 755,1268 1474,1459 1294,347 6506,347 6506,347 0,0 5212,0 6506,-353 718,-193 1281,-737 1474,-1459 347,-1304 347,-4031 347,-4031l0 0 0 1z"/>
  </g>
 </g>
</svg>
