<?xml version="1.0" encoding="UTF-8"?>
<!DOCTYPE svg PUBLIC "-//W3C//DTD SVG 1.1//EN" "http://www.w3.org/Graphics/SVG/1.1/DTD/svg11.dtd">
<!-- Creator: CorelDRAW 2020 (64-Bit) -->
<svg xmlns="http://www.w3.org/2000/svg" xml:space="preserve" width="192.999mm" height="192.996mm" version="1.1" style="shape-rendering:geometricPrecision; text-rendering:geometricPrecision; image-rendering:optimizeQuality; fill-rule:evenodd; clip-rule:evenodd"
viewBox="0 0 19240 19240"
 xmlns:xlink="http://www.w3.org/1999/xlink"
 xmlns:xodm="http://www.corel.com/coreldraw/odm/2003">
 <defs>
  <style type="text/css">
   <![CDATA[
    .fil0 {fill:#FF0009;fill-rule:nonzero}
   ]]>
  </style>
 </defs>
 <g id="Слой_x0020_1">
  <metadata id="CorelCorpID_0Corel-Layer"/>
  <g id="_1935948427264">
   <g>
    <g>
     <path class="fil0" d="M19236 7355c-2,-22 -6,-44 -13,-65 -4,-19 -11,-37 -18,-55 -9,-17 -20,-34 -32,-49 -12,-18 -27,-35 -43,-50 -5,-4 -7,-11 -13,-15l-3084 -2395 0 -2482c0,-531 -431,-962 -962,-962l-3475 0 -1391 -1080c-344,-268 -826,-268 -1170,0l-1392 1080 -3475 0c-531,0 -962,431 -962,962l0 2482 -3083 2395c-5,5 -8,11 -13,15 -16,15 -30,32 -43,50 -12,15 -23,32 -32,49 -8,18 -14,36 -18,55 -7,21 -11,42 -13,64 0,7 -4,13 -4,19l0 10904c0,204 66,402 188,566 2,3 2,6 4,9 2,3 7,5 10,9 180,237 460,377 758,378l17317 0c299,-1 580,-141 761,-380 3,-3 6,-4 9,-7 2,-3 3,-6 5,-9 122,-164 188,-362 188,-566l0 -10903c0,-7 -4,-13 -4,-19zm-9809 -6648c112,-89 271,-89 383,0l740 574 -1860 0 738 -574zm-8385 17891l8385 -6513c112,-89 271,-89 383,0l8387 6513 -17155 0zm17557 -500l-8394 -6519c-344,-268 -826,-268 -1170,0l-8394 6519 0 -10235 5255 4081c140,109 342,83 450,-57 109,-140 83,-342 -57,-450l-5339 -4145 2256 -1753 0 2478c0,177 144,321 321,321 177,0 321,-144 321,-321l0 -5772c0,-177 144,-321 321,-321l10903 0c177,0 321,144 321,321l0 5772c0,177 144,321 321,321 177,0 321,-144 321,-321l0 -2478 2256 1753 -5348 4153c-92,70 -139,183 -124,298 15,114 91,212 198,255 107,43 229,26 319,-46l5264 -4088 0 10235 0 0z"/>
     <path class="fil0" d="M13468 7695l0 -1283c0,-2125 -1723,-3848 -3848,-3848 -2125,0 -3848,1723 -3848,3848 0,2125 1723,3848 3848,3848 177,0 321,-144 321,-321 0,-177 -144,-321 -321,-321 -1771,0 -3207,-1436 -3207,-3207 0,-1771 1436,-3207 3207,-3207 1771,0 3207,1436 3207,3207l0 1283c0,354 -287,641 -641,641 -354,0 -641,-287 -641,-641l0 -1283c0,-177 -144,-321 -321,-321 -177,0 -321,144 -321,321 0,708 -574,1283 -1283,1283 -708,0 -1283,-574 -1283,-1283 0,-708 574,-1283 1283,-1283 177,0 321,-144 321,-321 0,-177 -144,-321 -321,-321 -861,-2 -1619,569 -1855,1397 -236,828 107,1712 840,2165 733,452 1677,363 2311,-220 70,678 659,1182 1340,1146 681,-36 1214,-600 1212,-1281z"/>
    </g>
   </g>
  </g>
 </g>
</svg>
