<?xml version="1.0" encoding="UTF-8"?>
<!DOCTYPE svg PUBLIC "-//W3C//DTD SVG 1.1//EN" "http://www.w3.org/Graphics/SVG/1.1/DTD/svg11.dtd">
<!-- Creator: CorelDRAW 2018 (64-Bit) -->
<svg xmlns="http://www.w3.org/2000/svg" xml:space="preserve" width="22.0047mm" height="14.8597mm" version="1.1" style="shape-rendering:geometricPrecision; text-rendering:geometricPrecision; image-rendering:optimizeQuality; fill-rule:evenodd; clip-rule:evenodd"
viewBox="0 0 2968.7 2004.75"
 xmlns:xlink="http://www.w3.org/1999/xlink">
 <defs>
  <style type="text/css">
   <![CDATA[
    .fil0 {fill:red}
    .fil1 {fill:white}
   ]]>
  </style>
 </defs>
 <g id="Слой_x0020_1">
  <metadata id="CorelCorpID_0Corel-Layer"/>
  <path class="fil0" d="M1876.32 865.85l197.16 685.66c26.93,-0.76 593.36,-168.18 669.73,-190.63 67.82,-19.94 159.84,-52 225.48,-64.25l-197.38 -688.43 -894.99 257.64z"/>
  <polygon class="fil0" points="1732.24,366.69 1856.42,799.45 2428.4,635.88 2304.23,202.57 "/>
  <path class="fil1" d="M1139.43 1323.51c-10.9,-45.18 -54.34,-57.19 -106.34,-50.86 -61.33,7.43 -111.3,33.51 -132.75,11.98 -38.87,-39.07 -60.13,-181.29 -73.68,-249.05 -44.25,-221.27 -19.24,-391.41 -32.35,-458.93 -12.55,-64.54 -67.94,-30.61 -89.49,0.58 -50.94,73.8 -36.4,186.96 -28.26,285.41 2.89,35.02 1.39,117.14 24.92,138.43 17.23,15.61 24.7,20.37 35.64,46.21 7.68,18.09 13.18,38.88 19.68,57.99 17.27,50.61 73.8,199.62 106.43,220.61 24.82,15.93 230.19,46.44 276.19,-2.36z"/>
  <path class="fil0" d="M1156.25 1148.76l27.08 50.7c92.77,-91.5 62.48,-42.83 119.82,-76.72l-19.78 -44.75c3.83,-6.95 84.12,-92.06 12.47,-119.56 -75.59,-28.99 -217.9,50.32 -246.13,123.04 -29.91,77.02 51.67,75.97 106.55,67.29z"/>
  <path class="fil1" d="M405.21 1371c167.05,-26.48 297.79,97.04 319.43,236.61 25.69,165.7 -98.09,300.11 -238.48,320.31 -166.04,23.89 -298.7,-96.3 -318.86,-237.34 -24.2,-169.3 95.65,-297.01 237.92,-319.58zm1042.02 -0.18c166.79,-26.05 297.63,97.69 318.65,237.69 15.34,102.2 -38.37,214.13 -94.14,254.32 -45.9,33.05 -76.12,54.65 -143.32,64.85 -166.17,25.23 -297.76,-96.42 -319.73,-236.42 -26.63,-169.75 97.19,-298.36 238.54,-320.44zm-305.02 362.7c32.42,97.96 79.91,176.68 174.21,226.42 335.61,177.11 672.23,-207.68 461.12,-514.34 -23.53,-34.19 -19.33,-18.91 -33.86,-68.17 -7.68,-25.98 -15.39,-48.5 -25.63,-72.53 -21.87,-51.32 -34.73,-90.13 -95.94,-100.56 -58.01,-9.88 -130.55,-5.91 -192.03,-8.27 -62.96,-2.39 -120.54,-12.29 -167.09,21.09 -42.25,30.29 -32.91,93.47 -61.52,138.88 -25.12,39.91 -67.63,62.06 -130.93,63.93 -57.38,1.7 -131.66,-1.39 -186.1,-13.25 -63.71,-13.87 -85.9,-33.81 -111.8,-84.28 -22.73,-44.26 -43.2,-89.68 -62.06,-138.22 -15.6,-40.14 -33.42,-115.93 -60.32,-135.92 -70.13,-52.13 -245.08,-53.45 -344.16,-53.36 -55.88,0.05 -140.19,-8.16 -179.19,22.11 -114.95,89.22 -104.99,317.15 -118.33,474.08 -2.55,30 -7.41,65.58 -8.51,94.14 -1.27,32.7 22.37,40.7 49.38,47.44 54.64,13.65 38.19,-3.43 43.66,54.14 2.75,28.97 9,53.9 18.15,80.29 34.29,98.65 104.15,164.85 190.31,206.21 188.76,90.62 444.67,-24.74 489.89,-244.14l350.77 4.3z"/>
  <path class="fil1" d="M1939.23 1759.62l907.66 -261.19 -23.34 -74.63 -792.61 227.57c-11.99,-19.35 -335.57,-1155.68 -358.96,-1236.35 -23.77,-82 -107.17,-355.53 -118.99,-415.03l-112.02 31.1 498.26 1728.53z"/>
  <path class="fil1" d="M513.5 934.7l109.12 20.25c0.81,-174.63 9.19,-377.25 14.21,-555.66 0.85,-30.29 1.05,-62.33 2.04,-91.4 0.54,-15.91 0.28,-31.64 0.85,-47.6 1,-28.32 -1.31,-32.78 8.45,-42.4 33.86,-33.35 465.66,22.99 523.39,76.2 19.04,17.55 37.57,124.98 46.17,162.11l155.16 665.51 110.36 5.03c-1.52,-32.7 -146.92,-644.21 -164.32,-718.56 -38.98,-166.45 -29.11,-222.75 -262.81,-268.56 -95.11,-18.66 -213.53,-34.35 -312.59,-39.11 -131.86,-6.34 -206.56,8.42 -212.31,143.29 -9.79,230.31 -6.19,461.25 -17.7,690.9z"/>
  <path class="fil1" d="M1467.91 1465.05c-246.94,28.66 -203.33,399.56 43.54,368.28 95.09,-12.05 172.44,-96.27 159.97,-207.85 -10.48,-93.79 -98.04,-172.67 -203.5,-160.44z"/>
  <path class="fil1" d="M419.99 1472.2c-235.68,36.49 -181.61,392.14 57.31,353.33 87.94,-14.27 162.25,-100.02 145.31,-205.75 -13.96,-87.17 -97.87,-163.78 -202.62,-147.58z"/>
 </g>
</svg>
