<?xml version="1.0" encoding="UTF-8"?>
<!DOCTYPE svg PUBLIC "-//W3C//DTD SVG 1.1//EN" "http://www.w3.org/Graphics/SVG/1.1/DTD/svg11.dtd">
<!-- Creator: CorelDRAW 2018 (64-Bit) -->
<svg xmlns="http://www.w3.org/2000/svg" xml:space="preserve" width="16.1746mm" height="16.177mm" version="1.1" style="shape-rendering:geometricPrecision; text-rendering:geometricPrecision; image-rendering:optimizeQuality; fill-rule:evenodd; clip-rule:evenodd"
viewBox="0 0 213.97 214"
 xmlns:xlink="http://www.w3.org/1999/xlink">
 <defs>
  <style type="text/css">
   <![CDATA[
    .fil0 {fill:red}
    .fil1 {fill:white}
   ]]>
  </style>
 </defs>
 <g id="Слой_x0020_1">
  <metadata id="CorelCorpID_0Corel-Layer"/>
  <path class="fil0" d="M16.46 36.08c0,3.76 0.28,6.5 1.92,9.77 0.74,1.46 1.79,3.33 2.9,4.51l2.39 2.39c2.76,2.64 8.29,4.9 12.39,4.9 4.27,0 7.95,-0.59 11.39,-2.76 1.53,-0.96 3.58,-2.41 4.71,-3.84l1.65 -1.97c2.04,-2.71 3.81,-7.2 3.81,-11.01 0,-4.25 -0.58,-7.93 -2.76,-11.39 -0.58,-0.91 -1.33,-2.11 -2.05,-2.89 -1.84,-1.97 -1.39,-1.67 -3.77,-3.47 -1.01,-0.77 -1.94,-1.25 -3.1,-1.83 -6.33,-3.19 -15.17,-2.49 -20.79,1.76 -2.63,1.99 -1.82,1.41 -3.78,3.46 -2.64,2.76 -4.9,8.28 -4.9,12.39z"/>
  <path class="fil1" d="M8.23 192.77l0 -11.69 131.67 0 0 13.33c0,2.38 0.65,4.56 1.29,6.28 0.96,2.59 2.52,4.55 2.66,5.08l-120.64 0c-3.59,0 -5.65,-0.13 -8.07,-1.31 -3.87,-1.89 -6.91,-5.89 -6.91,-11.69zm5.43 -138.9c0,-0.23 0.06,-0.18 -0.17,-0.16 0.01,-0.23 0.06,-0.18 -0.17,-0.16l-2.57 -4.84c-1.77,-3.69 -1.99,-6.24 -2.38,-9.96 -1.05,-9.9 4.84,-20.81 13.26,-25.96 4.46,-2.73 10.04,-4.52 15.4,-4.52 2.45,0 6.21,0.6 8.54,1.35 8.17,2.62 14.75,8.65 18.06,16.51 1.97,4.68 2.48,9.54 1.89,14.76 -0.33,2.9 -1.56,6.96 -2.97,9.38l-1.81 3.3c-0.23,-0.01 -0.18,-0.07 -0.17,0.16 -0.23,-0.01 -0.18,-0.07 -0.14,0.16 -0.26,-0.01 -0.19,-0.07 -0.19,0.18 -1.27,1.74 -2.62,3.03 -4.15,4.55 -0.39,0.39 -0.73,0.62 -1.17,0.97 -0.46,0.38 -0.83,0.64 -1.31,0.99 -3.78,2.85 -9.91,5.03 -14.6,5.15 -0.86,0.02 -1.14,0.19 -2.14,0.18 -3.39,-0.06 -7.86,-0.94 -10.91,-2.27l-2.97 -1.47c-0.6,-0.3 -0.79,-0.48 -1.33,-0.81 -1.19,-0.73 -2.82,-1.88 -3.76,-2.82 -1.64,-1.64 -2.35,-2.23 -3.72,-4.02l-0.52 -0.63zm56.45 -0.16c1.39,-2.72 2.53,-5.64 3.22,-9.13 0.86,-4.27 0.71,-4.67 0.73,-8.66 0,-1.25 -0.17,-1.86 -0.17,-2.96l103.03 0c-0.91,1.73 -1.64,1.96 -2.94,5.45 -0.86,2.31 -1.18,4.15 -1.18,7.28l0 62.55c0,25.82 0,51.64 0,77.46 0,5.84 0.83,11.89 -3.33,16.09 -1.58,1.6 -3.5,3.01 -6.12,3.59 -3.01,0.67 -5.75,0.28 -8.11,-0.81 -2.25,-1.04 -3.87,-2.61 -5.16,-4.55 -1.32,-1.98 -1.98,-4.41 -1.97,-7.74 0.02,-6.47 0,-12.95 0,-19.42l-106.98 0 0 -57.61 -8.23 0 0 57.61 -32.92 0c0,6.8 0,13.61 0,20.41 -0,2.41 0.29,4.57 0.97,6.6 0.69,2.08 1.4,3.35 2.59,5.15 0.77,1.17 1.91,2.55 2.98,3.44 0.28,0.23 0.4,0.4 0.66,0.65 1.84,1.79 5.82,3.73 8.48,4.36 1.49,0.35 2.77,0.54 4.57,0.53l133.15 0c0.11,0 0.23,0 0.34,0l7.9 0c3.1,-0.19 5.98,-0.86 9.42,-2.91 0.98,-0.58 2.19,-1.38 2.95,-2.15 0.79,-0.8 1.63,-1.43 2.53,-2.58 4.24,-5.44 4.51,-9.29 4.51,-16.06 0,-27.36 0,-54.71 0,-82.06l0 -42.36 32.92 0 0 -20.18c0,-5.48 -1.43,-9.27 -4.44,-13.23 -0.42,-0.55 -0.8,-0.81 -1.25,-1.39 -1.15,-1.47 -4.2,-3.47 -5.89,-4.32 -2.02,-1.01 -5.2,-2.05 -8.17,-2.03 -13.6,0.08 -27.22,0 -40.82,0 -27.16,0 -54.31,0 -81.47,0 -0.38,-1.64 -2.14,-5.03 -3.03,-6.51 -0.67,-1.11 -1.21,-1.89 -1.9,-2.87l-2.18 -2.76c-1.52,-1.52 -3.03,-3.23 -4.9,-4.65 -2.54,-1.94 -6.08,-4.11 -9.17,-5.31 -1.23,-0.48 -2.22,-0.82 -3.56,-1.21 -5.63,-1.63 -11.83,-1.81 -17.38,-0.7 -7.24,1.45 -13.75,4.92 -18.9,10.07l-1.65 1.81c-6.81,7.66 -9.2,15.66 -9.26,25.97 -0.02,4 1.18,8.54 2.49,11.99l1.12 2.49c0.03,0.07 0.18,0.35 0.23,0.44 0.32,0.49 0.06,0.15 0.31,0.38 0.12,1.05 2.62,4.62 3.46,5.71 0.79,1.01 0.62,0.86 0.61,2.52l-0 37.03c-0.03,5.79 4.71,9.16 9.67,8.35 1.88,-0.31 2.87,-1.07 4.26,-2l11.06 -7.37c0.67,-0.44 1.21,-0.81 1.88,-1.25 2.31,-1.54 1.58,-1.53 3.79,-0.07l13.04 8.69c2.82,1.88 5.73,3.11 9.27,1.33 3.14,-1.58 4.67,-4.08 4.66,-7.85l-0 -37.03c-0.02,-2.27 0.13,-1.51 1.98,-4.28 0.43,-0.65 0.78,-1.17 1.22,-1.9 0.44,-0.73 0.7,-1.34 1.08,-2.04zm110.93 -8.01c0,-6.08 4.05,-11.18 9.58,-12.37 2.27,-0.48 3.25,-0.48 5.52,0 2.35,0.5 4.34,1.72 6,3.38 2,1.99 3.58,5.06 3.58,8.99l0 11.95 -24.69 0 0 -11.95zm-90.53 61.33l41.15 0 0 -8.23 -41.15 0 0 8.23zm0 -16.46l57.61 0 0 -8.23 -57.61 0 0 8.23zm0 -16.46l74.07 0 0 -8.23 -74.07 0 0 8.23zm-74.06 25.18l0 -31.27 8.42 4.09c9.57,3.59 22,2.3 30.62,-2.91 0.58,-0.35 1.51,-1.05 2.11,-1.19l0 31.27 -14.32 -9.55c-2.52,-1.68 -3.35,-2.47 -6.58,-2.47 -2.53,0 -4.16,1.29 -5.73,2.34l-14.52 9.68zm49.38 48.88l8.23 0 0 -16.46 -8.23 0 0 16.46zm32.92 0l8.23 0 0 -16.46 -8.23 0 0 16.46zm-16.46 0l8.23 0 0 -16.46 -8.23 0 0 16.46zm-32.92 0l8.23 0 0 -16.46 -8.23 0 0 16.46zm86.41 -8.23c0,-1.13 0.4,-2.49 0.77,-3.34 0.81,-1.88 2.24,-3.31 4.12,-4.12 2.35,-1.01 4.33,-1.01 6.68,0 6.43,2.77 6.43,12.14 0,14.91 -5.94,2.56 -11.57,-2.05 -11.57,-7.46zm-8.23 -0.99c0,5.23 1.17,8.99 4.81,12.63 7.86,7.86 21.23,6.07 26.57,-4.62 5.19,-10.38 -2.89,-23.48 -14.27,-23.48 -3.11,0 -5.02,0.2 -7.79,1.59 -5.16,2.59 -9.33,8.13 -9.33,13.88z"/>
 </g>
</svg>
