<?xml version="1.0" encoding="UTF-8"?>
<!DOCTYPE svg PUBLIC "-//W3C//DTD SVG 1.1//EN" "http://www.w3.org/Graphics/SVG/1.1/DTD/svg11.dtd">
<!-- Creator: CorelDRAW 2018 (64-Bit) -->
<svg xmlns="http://www.w3.org/2000/svg" xml:space="preserve" width="26.5671mm" height="14.9313mm" version="1.1" style="shape-rendering:geometricPrecision; text-rendering:geometricPrecision; image-rendering:optimizeQuality; fill-rule:evenodd; clip-rule:evenodd"
viewBox="0 0 1141.1 641.32"
 xmlns:xlink="http://www.w3.org/1999/xlink">
 <defs>
  <style type="text/css">
   <![CDATA[
    .fil1 {fill:red}
    .fil0 {fill:white}
   ]]>
  </style>
 </defs>
 <g id="Слой_x0020_1">
  <metadata id="CorelCorpID_0Corel-Layer"/>
  <path class="fil0" d="M396.04 538.99c0,-17.24 -0.33,-21.72 7.91,-38.27 28.07,-56.36 105.39,-57.32 133.93,-1.42 10.09,19.77 11.07,46.59 0.82,66.2 -10.87,20.8 -35.19,42.06 -60.1,42.06 -28.07,0 -39.11,-0.81 -61.23,-22.73 -7.54,-7.48 -8.88,-9.65 -13.89,-19.69 -3.39,-6.8 -7.44,-16.69 -7.44,-26.14zm541.57 68.57c-24.05,0 -41.63,-4.55 -57.75,-20.61 -46.52,-46.34 -15.25,-129.12 52.16,-129.12 67.44,0 99.7,79.64 57.04,125.62 -11,11.85 -29.28,24.12 -51.44,24.12zm-115.87 -469.73c22.71,-0.25 151.45,-1.43 170.28,0.04 16.39,1.28 19.68,16 26.23,29.41 7.7,15.75 70.99,139.24 74.67,151.21l-160.2 0.05c-0.22,-27.71 -0.04,-55.5 -0.04,-83.22 0,-7.99 0.95,-35.15 -0.8,-40.56 -3.27,-10.08 -17,-12.77 -25.09,-4.28 -7.08,7.41 -4.3,26.76 -4.3,37.84 0,20.54 -1.34,115.52 1.19,122.41l202.24 0.18c2.01,15.55 1.19,39.59 1.42,56.54 0.25,18.23 0.49,36.43 0.75,54.57 0.68,46.98 3.53,39.91 -73,39.43 -12.9,-44.11 -54.72,-74.89 -103.07,-74.55 -45.43,0.33 -77.13,23.43 -95.84,61.03 -6.82,13.71 -1.49,13.28 -14.98,13.17l0.55 -363.26zm-379.52 -106.7c67.2,2.01 138.19,0.42 205.72,0.09 34.01,-0.18 68.12,0.2 102.16,0.18 43.78,-0.04 40.13,11.94 40.13,61.18 0,41.68 2.11,400.33 -0.98,407.17 -7.69,4.15 -143.81,1.39 -165.1,1.39 -55.26,0 -47.01,5.27 -62.24,-21.67 -37.69,-66.65 -122.66,-65.6 -166.41,-22.19 -29.94,29.71 -15.77,44.46 -39.98,44.11 -14.01,-0.2 -28.03,-0.39 -42.04,-0.23 -14.64,0.16 -26.18,3.39 -32.63,-8.35 -0.37,-4.69 -1.77,-6.53 -2.92,-12.02 -1.28,-6.05 -0.94,-9.11 -3.55,-13.25 -5.31,-8.42 -37.54,-16.94 -29.89,21.49 5.28,26.53 23.57,44.7 53.65,45.82 7.06,0.26 15.54,-2.76 32.07,-1.39 10.28,0.85 19.96,1.33 32.26,1.33 5.25,63.07 47.57,102.86 107.77,106.38 53.81,3.14 109.14,-44.83 109.14,-106.38l246.3 0c0,26.6 12.44,57.34 31.44,74.92 39.2,36.24 96.91,42.09 137.53,12.88 10.27,-7.38 19.59,-15.98 26.97,-26.2 3.93,-5.44 6.67,-10.47 9.8,-16.79 5.48,-11.07 9.77,-28.09 9.77,-44.8 26.89,0 70.81,3.63 88.53,-16.43 10.17,-11.52 10.84,-21.4 10.83,-42.34 0,-15.27 1.4,-38.69 -0.2,-52.98 -3.53,-31.39 2.8,-72.31 -6.77,-98.19 -4.45,-12.02 -11.42,-24.16 -17.28,-35.89l-52.62 -105.52c-3.13,-6.33 -5.42,-11.56 -8.72,-17.86 -34.66,-66.06 -23.3,-59.02 -125.71,-59.02 -35.45,0 -70.9,0 -106.36,0 0,-10.2 0.25,-20.72 0,-30.88 -0.06,-2.23 -0.21,-4.11 -0.34,-6.16 -1.37,-24.16 -0.65,-45.93 -24.9,-60.87 -17.51,-10.78 -27.78,-8.44 -54.53,-8.44l-440.82 -0c-18.37,-0.04 -34.72,2.71 -45.62,17.35 -14.94,20.08 -18.76,51.99 -3.09,55.17 26.54,5.4 22.66,-16.63 24.04,-23.03 5.65,-26.24 52.19,-18.52 73.67,-17.27 6.7,0.39 9.59,-0.71 14.17,-1.23 14.57,-1.64 31.55,1.68 46.02,1.24 11.13,-1.19 19.45,-1.73 30.74,-1.31zm-295.28 282.55c0,11.36 6.74,18.19 18.19,18.19l239.3 0c20.54,0 18.19,-14.4 18.19,-20.99 0,-8.87 -8,-12.59 -16.79,-12.59l-237.9 0c-11.29,0 -20.99,4.43 -20.99,15.39zm53.18 -166.53l243.5 0c18.6,0 25.93,-33.43 -8.33,-33.65l-26.2 0.8c-5.27,0.08 -1.97,-0.73 -7.46,-0.73 -30.58,0 -144.32,-1.4 -165.93,0.82 -0.01,0 -2.68,0.26 -2.78,0.26 -14.76,1.22 -46.3,-8.39 -50.3,13.65 -2.04,11.21 5.96,18.84 17.5,18.84zm-111.95 277.08l226.7 0c40.55,0 28.54,-33.58 11.19,-33.58l-244.9 0c-19.78,0 -26.24,33.58 7.01,33.58zm-11.2 -201.51c0,9.72 4.17,18.19 15.4,18.19l246.3 0c16.87,0 18.12,-24.87 6.69,-30.49 -3.75,-1.85 -12.8,-2.19 -16.87,-2.71 -13.11,-1.73 -24.25,1.01 -37.42,1.04 -12.68,0.03 -23.78,-2.76 -37.56,-1.22 -6.05,0.68 -10.33,1.2 -18.42,1.22 -8.96,0.02 -12.12,-1.24 -19.53,-1.46 -14.17,-0.43 -24.07,1.46 -37.86,1.48 -12.78,0.02 -24.3,-3.01 -38.57,-0.85 -21.97,3.32 -62.16,-8.73 -62.16,14.81zm-76.96 92.36c0,12.56 7.63,16.79 22.39,16.79l83.97 0c22.43,0 26.1,-33.58 0,-33.58l-89.57 0c-10.82,0 -16.79,5.97 -16.79,16.79zm79.77 -187.52c0,25.12 12.72,19.59 54.58,19.59 17.74,0 27.41,-33.58 -9.79,-33.58 -16.33,0 -44.79,-3.66 -44.79,13.99z"/>
  <path class="fil1" d="M415.47 533.32c0,10.11 0.74,17.49 5.16,26.27 1.98,3.93 4.82,8.96 7.79,12.13l6.42 6.42c7.42,7.09 22.29,13.17 33.31,13.17 11.48,0 21.38,-1.59 30.64,-7.43 4.11,-2.59 9.62,-6.49 12.68,-10.34l4.43 -5.3c5.48,-7.29 10.24,-19.38 10.24,-29.61 0,-11.43 -1.56,-21.33 -7.43,-30.63 -1.55,-2.46 -3.56,-5.68 -5.51,-7.77 -4.95,-5.29 -3.73,-4.5 -10.13,-9.34 -2.73,-2.07 -5.23,-3.36 -8.35,-4.94 -17.02,-8.59 -40.8,-6.7 -55.91,4.74 -7.07,5.34 -4.89,3.79 -10.17,9.31 -7.1,7.43 -13.17,22.28 -13.17,33.32z"/>
  <path class="fil1" d="M877.8 532.01c0,10.11 0.74,17.49 5.16,26.27 1.98,3.93 4.82,8.96 7.79,12.13l6.42 6.42c7.42,7.09 22.29,13.17 33.31,13.17 11.48,0 21.38,-1.59 30.64,-7.43 4.11,-2.59 9.63,-6.49 12.68,-10.34l4.43 -5.3c5.48,-7.29 10.24,-19.38 10.24,-29.61 0,-11.43 -1.56,-21.33 -7.43,-30.64 -1.55,-2.46 -3.56,-5.68 -5.51,-7.77 -4.95,-5.29 -3.73,-4.5 -10.13,-9.35 -2.73,-2.06 -5.23,-3.36 -8.35,-4.93 -17.02,-8.59 -40.8,-6.7 -55.91,4.74 -7.07,5.35 -4.89,3.79 -10.17,9.32 -7.1,7.43 -13.17,22.28 -13.17,33.32z"/>
 </g>
</svg>
