<?xml version="1.0" encoding="UTF-8"?>
<!DOCTYPE svg PUBLIC "-//W3C//DTD SVG 1.1//EN" "http://www.w3.org/Graphics/SVG/1.1/DTD/svg11.dtd">
<!-- Creator: CorelDRAW 2020 (64-Bit) -->
<svg xmlns="http://www.w3.org/2000/svg" xml:space="preserve" width="210mm" height="297mm" version="1.1" style="shape-rendering:geometricPrecision; text-rendering:geometricPrecision; image-rendering:optimizeQuality; fill-rule:evenodd; clip-rule:evenodd"
viewBox="0 0 21000 29700"
 xmlns:xlink="http://www.w3.org/1999/xlink"
 xmlns:xodm="http://www.corel.com/coreldraw/odm/2003">
 <defs>
  <style type="text/css">
   <![CDATA[
    .str0 {stroke:#2B2A29;stroke-width:20;stroke-miterlimit:22.9256}
    .fil1 {fill:#FF0009}
    .fil0 {fill:#FEFEFE;fill-rule:nonzero}
   ]]>
  </style>
 </defs>
 <g id="Слой_x0020_1">
  <metadata id="CorelCorpID_0Corel-Layer"/>
  <g id="XMLID_1031_">
   <g id="XMLID_971_">
    <g id="XMLID_977_">
     <path id="XMLID_1030_" class="fil0" d="M17795 10669l549 0c191,0 347,-155 347,-347 0,-191 -155,-347 -347,-347l-1317 0c-191,0 -347,155 -347,347l0 1317c0,191 155,347 347,347 191,0 347,-155 347,-347l0 -381c1052,1408 1623,3116 1623,4893 0,4514 -3672,8186 -8186,8186 -4514,0 -8186,-3672 -8186,-8186 0,-4514 3672,-8186 8186,-8186 334,0 670,20 999,60 190,23 363,-112 386,-302 23,-190 -112,-363 -302,-386 -357,-43 -721,-65 -1082,-65 -2372,0 -4602,924 -6279,2601 -1677,1677 -2601,3907 -2601,6279 0,2372 924,4602 2601,6279 1677,1677 3907,2601 6279,2601 2372,0 4602,-924 6279,-2601 1677,-1677 2601,-3907 2601,-6279 0,-2001 -669,-3923 -1895,-5482z"/>
     <path id="XMLID_1029_" class="fil0" d="M5691 12507c-162,-102 -376,-54 -478,107 -791,1250 -1142,2753 -986,4232 158,1501 833,2917 1903,3987 1291,1291 2986,1936 4681,1936 1695,0 3391,-645 4681,-1936 2581,-2581 2581,-6781 0,-9363 -1068,-1068 -2481,-1743 -3980,-1902 -1477,-157 -2978,191 -4227,978 -162,102 -210,316 -108,478 102,162 316,210 478,108 2355,-1484 5376,-1144 7348,827 2311,2311 2311,6071 0,8382 -2311,2311 -6071,2311 -8382,0 -1944,-1944 -2289,-5038 -821,-7358 102,-162 54,-376 -107,-478z"/>
     <path id="XMLID_1028_" class="fil0" d="M15316 16504l427 0c191,0 347,-155 347,-347 0,-191 -155,-347 -347,-347l-427 0c-191,0 -347,155 -347,347 0,191 155,347 347,347z"/>
     <path id="XMLID_1004_" class="fil0" d="M5530 16146c0,191 155,347 347,347l427 0c191,0 347,-155 347,-347 0,-191 -155,-347 -347,-347l-427 0c-191,0 -347,155 -347,347z"/>
     <path id="XMLID_1001_" class="fil0" d="M11162 11646l0 -427c0,-191 -155,-347 -347,-347 -191,0 -347,155 -347,347l0 427c0,191 155,347 347,347 191,0 347,-155 347,-347z"/>
     <path id="XMLID_1415_" class="fil0" d="M10458 20658l0 427c0,191 155,347 347,347 191,0 347,-155 347,-347l0 -427c0,-191 -155,-347 -347,-347 -191,0 -347,155 -347,347z"/>
     <path id="XMLID_996_" class="fil0" d="M9073 13924c-135,-135 -355,-135 -490,0 -135,135 -135,355 0,490l1175 1175c-90,168 -141,359 -141,563 0,658 536,1194 1194,1194 658,0 1194,-536 1194,-1194 0,-203 -51,-395 -141,-563l2370 -2370c135,-135 135,-355 0,-490 -135,-135 -355,-135 -490,0l-2370 2370c-168,-90 -359,-141 -563,-141 -203,0 -395,51 -563,141l-1175 -1175zm2238 2228c0,276 -225,501 -501,501 -276,0 -501,-225 -501,-501 0,-276 225,-501 501,-501 276,0 501,225 501,501z"/>
     <path id="XMLID_980_" class="fil0" d="M6619 11961c65,-64 102,-154 102,-245 0,-91 -37,-180 -102,-245 -64,-64 -154,-102 -245,-102 -91,0 -181,37 -245,102 -64,64 -102,154 -102,245 0,92 37,181 102,245 64,64 154,102 245,102 91,0 181,-37 245,-102z"/>
     <path id="XMLID_979_" class="fil0" d="M13211 8308c92,0 181,-37 245,-102 64,-64 102,-154 102,-245 0,-91 -37,-181 -102,-245 -64,-64 -154,-102 -245,-102 -91,0 -181,37 -245,102 -64,64 -102,154 -102,245 0,92 37,181 102,245 64,65 154,102 245,102z"/>
    </g>
   </g>
  </g>
  <circle class="fil1 str0" cx="10810" cy="16152" r="479"/>
 </g>
</svg>
