<?xml version="1.0" encoding="UTF-8"?>
<!DOCTYPE svg PUBLIC "-//W3C//DTD SVG 1.1//EN" "http://www.w3.org/Graphics/SVG/1.1/DTD/svg11.dtd">
<!-- Creator: CorelDRAW 2020 (64-Bit) -->
<svg xmlns="http://www.w3.org/2000/svg" xml:space="preserve" width="135.467mm" height="135.466mm" version="1.1" style="shape-rendering:geometricPrecision; text-rendering:geometricPrecision; image-rendering:optimizeQuality; fill-rule:evenodd; clip-rule:evenodd"
viewBox="0 0 11832 11832"
 xmlns:xlink="http://www.w3.org/1999/xlink"
 xmlns:xodm="http://www.corel.com/coreldraw/odm/2003">
 <defs>
  <style type="text/css">
   <![CDATA[
    .fil0 {fill:red;fill-rule:nonzero}
   ]]>
  </style>
 </defs>
 <g id="Слой_x0020_1">
  <metadata id="CorelCorpID_0Corel-Layer"/>
  <g id="_1714747423184">
   <g>
    <path class="fil0" d="M3299 10102c704,199 1633,308 2617,308 984,0 1913,-109 2617,-308 861,-243 1297,-595 1297,-1046 0,-451 -437,-803 -1297,-1046 -393,-111 -858,-194 -1362,-246 988,-1687 1967,-3597 1967,-4541 0,-1777 -1446,-3222 -3222,-3222 -1777,0 -3222,1446 -3222,3222 0,944 979,2854 1967,4541 -505,52 -969,135 -1362,246 -861,243 -1297,595 -1297,1046 0,451 436,803 1297,1046zm2617 -9409c1395,0 2529,1135 2529,2529 0,716 -886,2594 -2371,5023 -49,80 -127,89 -158,89 -31,0 -109,-9 -158,-89 -1485,-2429 -2371,-4307 -2371,-5023 0,-1395 1135,-2529 2529,-2529zm-2303 7949c413,-105 909,-179 1442,-218 37,61 74,122 111,182 161,263 441,421 750,421 309,0 589,-157 750,-421 37,-60 74,-121 111,-182 534,38 1029,112 1442,218 634,161 865,343 913,413 -48,70 -279,252 -913,413 -629,160 -1447,248 -2303,248 -856,0 -1674,-88 -2303,-248 -634,-161 -865,-343 -913,-413 48,-70 279,-251 913,-413z"/>
    <path class="fil0" d="M10823 8296c-168,-92 -379,-31 -471,137 -92,168 -31,379 137,471 413,227 650,478 650,690 0,259 -367,660 -1396,1010 -1017,346 -2376,536 -3827,536 -1451,0 -2810,-190 -3827,-536 -1029,-350 -1396,-751 -1396,-1010 0,-212 237,-463 650,-690 168,-92 229,-303 137,-471 -92,-168 -303,-229 -471,-137 -460,253 -1009,683 -1009,1298 0,471 324,1142 1866,1666 1087,369 2525,573 4050,573 1525,0 2963,-203 4050,-573 1543,-524 1866,-1195 1866,-1666 0,-614 -549,-1045 -1009,-1298z"/>
    <path class="fil0" d="M7211 3001c0,-714 -581,-1295 -1295,-1295 -714,0 -1295,581 -1295,1295 0,714 581,1295 1295,1295 714,0 1295,-581 1295,-1295zm-1897 0c0,-332 270,-602 602,-602 332,0 602,270 602,602 0,332 -270,602 -602,602 -332,0 -602,-270 -602,-602z"/>
   </g>
  </g>
 </g>
</svg>
